<svg width="64" height="64" viewBox="0 0 64 64" fill="none" xmlns="http://www.w3.org/2000/svg">
  <g id="Internet - Free arrows icons-2 1">
    <g id="Group">
      <path id="Vector"
        d="M54 24.53V24.25C54.0094 19.3524 52.2105 14.6237 48.9484 10.9706C45.6863 7.31754 41.1906 4.99716 36.3231 4.45441C31.4557 3.91166 26.5593 5.18473 22.5726 8.02953C18.5859 10.8743 15.7897 15.0906 14.72 19.87H14.25C10.4707 19.87 6.84612 21.3713 4.17373 24.0437C1.50133 26.7161 0 30.3406 0 34.12C0 37.8993 1.50133 41.5238 4.17373 44.1962C6.84612 46.8686 10.4707 48.37 14.25 48.37H22V44.37H14.25C11.5315 44.37 8.9244 43.29 7.00216 41.3678C5.07991 39.4455 4 36.8384 4 34.12C4 31.4015 5.07991 28.7944 7.00216 26.8721C8.9244 24.9499 11.5315 23.87 14.25 23.87C14.836 23.8609 15.4217 23.9044 16 24C16.2686 24.0506 16.5447 24.0457 16.8113 23.9855C17.0778 23.9253 17.3293 23.8111 17.55 23.65C17.7716 23.4892 17.9578 23.2847 18.0971 23.049C18.2365 22.8133 18.3259 22.5516 18.36 22.28C18.8563 18.266 20.8654 14.5926 23.9775 12.0094C27.0896 9.42614 31.0701 8.12773 35.1068 8.37906C39.1436 8.6304 42.9323 10.4125 45.6999 13.3619C48.4675 16.3112 50.0055 20.2054 50 24.25C50.0006 24.8716 49.9639 25.4927 49.89 26.11C49.8544 26.3928 49.8796 26.68 49.964 26.9523C50.0484 27.2246 50.1901 27.4757 50.3795 27.6887C50.5689 27.9018 50.8016 28.0719 51.0622 28.1877C51.3227 28.3035 51.6049 28.3622 51.89 28.36H52C54.1217 28.36 56.1566 29.2028 57.6569 30.7031C59.1571 32.2034 60 34.2382 60 36.36C60 38.4817 59.1571 40.5165 57.6569 42.0168C56.1566 43.5171 54.1217 44.36 52 44.36H42V48.36H52C55.0067 48.3568 57.9026 47.225 60.1147 45.1886C62.3268 43.1523 63.6938 40.3597 63.9453 37.3636C64.1967 34.3674 63.3143 31.3861 61.4726 29.0095C59.6309 26.6329 56.9641 25.0342 54 24.53Z"
        fill="white" />
      <path id="Vector_2"
        d="M30 36.36V52.8L25.59 48.39L22.76 51.22L30.59 59C30.9647 59.3725 31.4716 59.5816 32 59.5816C32.5284 59.5816 33.0353 59.3725 33.41 59L41.24 51.18L38.41 48.35L34 52.8V36.36H30Z"
        fill="white" />
    </g>
  </g>
</svg>