<svg width="2376" height="1034" viewBox="0 0 2376 1034" fill="none" xmlns="http://www.w3.org/2000/svg">
  <g opacity="0.1">
    <path
      d="M113.396 429.973C132.323 523.101 162.231 613.83 202.605 700.596C220.315 738.709 242.609 778.452 282.969 797.341C345.195 826.398 425.563 792.18 470.271 740.974C514.98 689.767 535.253 625.393 564.958 566.106C594.663 506.819 640.791 447.441 709.262 429.233C777.733 411.026 851.733 441.169 900.282 487.572C948.83 533.974 977.311 593.986 1006.87 652.191C1036.43 710.395 1069.27 769.415 1123.33 810.209C1177.38 851.002 1258.32 869.086 1321.05 837.434C1366.85 814.413 1394.65 770.832 1424.13 731.169C1500.19 627.109 1605.07 534.862 1734.63 495.502C1863.29 456.487 2016.7 478.96 2103.57 569.95"
      stroke="white" stroke-width="0.5" stroke-miterlimit="10" stroke-linecap="round" />
    <path
      d="M111.089 446.167C132.437 519.145 160.503 590.196 194.994 658.575C202.374 673.098 209.927 687.547 217.654 701.924C237.708 738.763 262.274 776.74 303.703 794.828C365.38 821.74 443.414 788.867 487.887 739.847C532.361 690.827 553.374 628.283 583.432 570.883C613.491 513.482 659.1 455.973 726.101 437.979C793.102 419.985 865.506 447.849 913.559 491.382C961.611 534.914 991.395 591.938 1021.57 647.326C1051.75 702.714 1085.24 759.127 1138.95 798.105C1192.67 837.083 1271.61 854.524 1333.71 824.541C1378.89 802.687 1407.01 761.284 1436.29 723.515C1442.81 715.104 1449.5 706.788 1456.37 698.566C1530.94 609.793 1627.96 532.538 1744.59 497.139C1870.66 458.788 2021.55 478.614 2107.35 563.874"
      stroke="white" stroke-width="0.5" stroke-miterlimit="10" stroke-linecap="round" />
    <path
      d="M108.806 463.076C136.082 531.721 168.926 598.3 207.069 662.274C215.329 676.143 223.763 690.129 232.496 704.001C254.961 739.485 281.809 775.767 324.451 792.96C385.435 817.821 461.315 786.983 505.441 739.377C549.567 691.771 571.5 631.749 601.932 576.375C632.364 521.001 677.455 465.361 743.042 447.429C808.63 429.497 879.16 455.338 926.958 496.037C974.756 536.735 1005.23 590.861 1036.33 643.387C1067.44 695.914 1101.49 749.662 1154.71 786.917C1207.94 824.172 1285.28 840.913 1346.51 812.564C1390.9 791.758 1419.42 752.592 1448.96 716.651C1455.68 708.498 1462.46 700.767 1469.22 692.966C1543.92 608.337 1639.97 534.165 1754.56 499.422C1878.45 461.818 2025.48 479.047 2110.85 558.56"
      stroke="white" stroke-width="0.5" stroke-miterlimit="10" stroke-linecap="round" />
    <path
      d="M106.473 479.632C140.039 543.677 177.824 605.734 219.625 665.471C228.711 678.502 238.141 692.272 247.819 705.575C272.55 739.797 301.67 774.313 345.391 790.776C405.594 813.525 479.269 784.371 523.176 738.519C567.082 692.668 589.662 634.919 620.535 581.491C651.408 528.062 695.991 474.362 760.051 456.795C824.112 439.229 893.025 462.649 940.28 500.7C987.535 538.751 1019.2 589.689 1051.09 639.447C1082.98 689.204 1117.61 739.855 1170.41 775.305C1223.21 810.755 1298.81 826.889 1359.33 800.221C1403.22 780.852 1431.86 743.606 1461.52 709.514C1468.32 701.924 1475.13 694.474 1481.95 687.024C1556.85 606.457 1651.9 535.228 1764.09 501.407C1886.18 464.425 2029.53 479.175 2115.14 552.767"
      stroke="white" stroke-width="0.5" stroke-miterlimit="10" stroke-linecap="round" />
    <path
      d="M103.907 496.222C139.009 549.603 182.792 607.247 231.727 668.806C241.87 681.683 252.219 694.53 262.775 707.347C289.839 740.225 321.164 773.057 366.031 788.707C425.396 809.498 497.001 781.864 540.379 737.812C583.757 693.759 607.824 638.091 638.596 586.686C669.368 535.281 713.985 483.442 776.591 465.657C839.197 447.871 906.277 469.549 953.402 504.533C1000.53 539.517 1032.9 587.697 1065.48 634.627C1098.07 681.556 1133.57 730.071 1185.87 763.727C1238.18 797.384 1312.11 812.9 1371.75 787.795C1415.08 769.511 1443.86 734.255 1473.73 702.213C1480.33 695.081 1487.2 687.983 1494.34 680.917C1569.77 604.577 1663.89 536.714 1774.45 503.058C1893.92 467.103 2033.89 479.258 2118.97 547.043"
      stroke="white" stroke-width="0.5" stroke-miterlimit="10" stroke-linecap="round" />
    <path
      d="M101.884 512.735C141.889 560.164 190.867 613.321 244.205 672.015C255.221 684.191 266.499 696.544 277.933 708.875C307.34 740.479 340.927 771.476 387.018 786.302C445.08 805.201 515.079 779.021 558.315 736.711C601.552 694.402 625.997 641.333 657.509 591.758C689.022 542.183 732.753 492.41 793.869 474.698C854.984 456.986 920.565 476.513 967.256 509.049C1013.95 541.585 1047.34 586.459 1080.69 630.55C1114.05 674.64 1149.84 720.242 1201.88 752.072C1253.92 783.901 1325.99 798.61 1384.85 775.701C1427.57 758.654 1456.61 725.728 1486.71 695.302C1493.63 688.555 1500.56 681.808 1507.5 675.201C1583.03 603.368 1676.21 538.295 1784.79 505.717C1901.72 469.7 2038.05 479.084 2122.88 541.309"
      stroke="white" stroke-width="0.5" stroke-miterlimit="10" stroke-linecap="round" />
    <path
      d="M99.538 529.221C144.457 570.769 198.552 619.45 256.449 675.257C268.487 686.854 280.633 698.651 293.176 710.462C324.917 740.722 360.661 770.256 407.966 784.189C465.752 801.19 533.273 776.447 576.136 735.914C618.998 695.381 644.225 644.423 676.178 596.794C708.131 549.164 751.287 501.412 810.932 483.913C870.577 466.415 934.408 483.685 980.788 513.539C1027.17 543.394 1061.51 585.044 1095.6 626.014C1129.69 666.984 1166.08 710.202 1217.71 740.298C1269.34 770.393 1339.63 784.787 1397.53 762.948C1439.64 747.068 1468.98 716.251 1499.21 687.745C1506.18 681.349 1513.16 675.023 1520.16 668.839C1595.6 601.252 1687.81 539.264 1794.35 507.34C1909.41 472.6 2042.41 479.671 2126.75 535.866"
      stroke="white" stroke-width="0.5" stroke-miterlimit="10" stroke-linecap="round" />
    <path
      d="M97.3135 545.978C147.089 581.796 206.271 625.792 268.835 678.911C281.73 689.881 294.841 701.25 308.174 712.515C342.258 741.502 379.666 769.431 428.967 782.428C485.539 797.596 551.212 774.27 593.932 735.48C636.653 696.689 662.223 647.548 694.472 601.956C726.722 556.364 769.746 510.425 827.725 492.882C885.705 475.339 947.981 490.611 994.039 517.713C1040.1 544.815 1075.31 583.182 1109.94 621.92C1144.57 660.658 1181.75 700.604 1232.97 728.965C1284.19 757.326 1352.92 770.798 1409.96 750.593C1451.45 735.95 1481.02 707.252 1511.43 680.514C1518.47 674.61 1525.12 668.692 1532.14 663.151C1608.27 599.77 1699.43 540.876 1804.04 509.305C1917.13 475.137 2046.57 479.496 2130.67 530.202"
      stroke="white" stroke-width="0.5" stroke-miterlimit="10" stroke-linecap="round" />
    <path
      d="M94.9372 562.253C160.17 597.851 222.36 637.782 281.018 681.731C294.935 692.122 308.913 702.935 323.124 713.714C359.551 741.427 399.483 767.697 449.447 779.808C504.979 793.262 568.783 771.212 611.217 734.257C653.652 697.303 680.383 650.719 712.697 607.199C745.01 563.679 787.682 519.657 844.294 501.954C900.906 484.25 961.416 497.698 1007.08 522.06C1052.74 546.421 1089.03 581.904 1124.72 617.617C1160.42 653.33 1197.79 690.809 1248.67 717.354C1299.55 743.899 1366.61 756.753 1423.01 738.147C1464.01 725.01 1493.75 698.081 1524.19 673.203C1531.29 667.651 1537.84 662.177 1544.95 656.695C1621.39 597.646 1711.64 541.755 1814.22 510.838C1924.83 477.534 2050.76 479.532 2134.44 524.056"
      stroke="white" stroke-width="0.5" stroke-miterlimit="10" stroke-linecap="round" />
    <path
      d="M92.2172 578.867C163.125 607.76 230.368 643.337 292.877 685.031C307.729 694.784 322.739 705.087 337.827 715.38C376.588 741.749 418.591 766.499 469.835 777.634C524.348 789.514 586.272 768.67 628.349 733.059C670.426 697.448 698.02 653.537 731.074 611.847C764.128 570.157 805.826 528.143 861.134 510.701C916.441 493.259 975.509 504.405 1020.84 526.517C1066.18 548.63 1103.38 580.607 1139.76 613.422C1176.14 646.237 1214.21 680.888 1264.36 705.673C1314.5 730.459 1380.36 742.627 1435.43 725.722C1475.76 713.471 1505.79 689.012 1536.58 666.021C1543.74 660.89 1550.36 655.838 1557.44 650.789C1634.01 595.883 1723.52 542.971 1823.83 512.814C1932.55 480.072 2054.96 479.569 2137.95 518.308"
      stroke="white" stroke-width="0.5" stroke-miterlimit="10" stroke-linecap="round" />
    <path
      d="M90.3373 595.287C166.522 617.27 238.91 648.415 305.623 687.914C321.42 697.099 337.298 706.846 353.371 716.852C394.465 741.877 438.471 765.188 491.063 775.266C543.655 785.344 604.602 765.934 646.501 732.358C688.399 698.782 716.677 656.853 749.976 616.85C783.275 576.846 824.738 537.019 878.477 519.661C932.216 502.304 989.313 511.296 1034.26 530.236C1080.56 549.768 1117.38 578.501 1154.53 608.477C1191.68 638.453 1230.32 671.012 1280.36 694.018C1330.41 717.024 1394.12 728.571 1448.47 713.277C1488.18 702.122 1518.52 679.842 1549.43 658.7C1556.65 653.991 1563.34 649.501 1570.38 644.674C1647.25 593.959 1735.6 544.587 1834.05 514.629C1940.04 482.714 2059.15 479.606 2141.92 512.492"
      stroke="white" stroke-width="0.5" stroke-miterlimit="10" stroke-linecap="round" />
    <path
      d="M88.014 611.914C169.089 627.142 246.659 654.033 317.853 691.589C334.894 700.091 351.417 709.386 368.337 718.694C411.775 742.446 457.862 764.305 511.878 773.315C564.199 782.069 622.489 763.404 663.879 731.768C705.269 700.132 734.638 660.269 768.331 622.433C802.024 584.596 842.959 546.568 895.274 529.203C947.59 511.837 1002.98 518.853 1047.45 535.063C1093.68 551.95 1131.23 577.563 1169.15 604.7C1207.08 631.836 1246.3 661.368 1295.92 682.569C1345.55 703.771 1407.84 714.233 1461.2 700.806C1500.3 690.888 1530.86 670.657 1562.04 651.412C1568.92 647.111 1575.97 642.857 1583.08 638.522C1660.17 592.08 1747.49 545.37 1844.03 516.407C1947.96 485.007 2063.33 479.571 2145.95 506.453"
      stroke="white" stroke-width="0.5" stroke-miterlimit="10" stroke-linecap="round" />
    <path
      d="M85.6353 628.19C159.819 634.052 244.776 655.858 330.132 694.54C347.807 702.519 365.466 710.931 383.372 719.952C429.154 742.43 477.254 762.921 532.608 770.803C583.791 777.713 640.31 760.454 681.636 730.55C722.962 700.645 752.435 663.135 786.724 627.221C821.012 591.308 861.295 555.312 912.042 538.03C962.789 520.749 1016.67 525.545 1060.75 539.085C1106.83 553.267 1145.11 575.76 1183.81 600.128C1222.52 624.496 1262.36 651.211 1311.5 670.689C1360.64 690.167 1420.91 700.349 1473.69 688.369C1511.93 679.651 1543.04 661.495 1574.33 644.1L1595.46 632.416C1672.78 590.246 1759.21 546.608 1853.71 518.301C1955.47 487.789 2067.36 479.559 2149.63 500.823"
      stroke="white" stroke-width="0.5" stroke-miterlimit="10" stroke-linecap="round" />
    <path
      d="M83.35 644.524C162.37 644.516 252.444 661.846 342.359 697.641C360.979 705.052 379.634 713.247 398.454 721.49C446.491 742.636 496.692 761.816 553.441 768.419C603.532 774.34 658.167 757.714 699.196 729.574C740.226 701.435 770.965 666.109 805.385 632.186C839.805 598.262 879.858 563.95 929.145 546.953C978.433 529.956 1030.67 532.191 1074.33 543.282C1120.24 554.69 1159.31 573.981 1198.81 595.651C1238.31 617.32 1278.64 641.451 1327.41 658.903C1376.17 676.355 1434.68 686.362 1486.64 675.793C1524.57 668.197 1555.6 652.275 1587.08 636.719L1608.4 626.229C1686 588.251 1771.45 547.627 1863.92 520.045C1963.38 489.941 2071.77 479.491 2153.67 494.924"
      stroke="white" stroke-width="0.5" stroke-miterlimit="10" stroke-linecap="round" />
    <path
      d="M80.9883 660.87C164.911 654.911 260.103 667.765 354.654 700.662C374.218 707.505 393.818 715.132 413.206 722.934C463.51 742.817 515.745 760.769 573.888 766.093C624.45 769.414 675.148 756.113 716.836 728.589C757.336 702.249 789.099 669.07 823.893 637.174C858.686 605.277 898.252 573.045 946.404 555.854C992.074 540.484 1041.32 537.541 1088.04 547.388C1132.07 556.748 1174.37 571.474 1213.81 591.174C1253.42 609.813 1294.7 631.223 1342.78 647.196C1390.85 663.17 1447.92 671.951 1499.12 663.216C1536.36 656.868 1567.31 643.11 1599.37 629.336L1620.7 620.064C1698.53 586.358 1782.99 548.747 1873.5 521.809C1971.13 492.689 2075.94 479.316 2157.4 489.001"
      stroke="white" stroke-width="0.5" stroke-miterlimit="10" stroke-linecap="round" />
    <path
      d="M78.6902 677.135C167.439 665.236 267.826 673.604 367.023 703.672C387.522 709.877 408.077 717.006 428.652 724.276C481.443 742.793 535.568 759.609 595.095 763.584C644.251 765.712 693.251 752.988 734.518 727.382C774.8 702.796 807.364 671.869 842.521 641.929C877.678 611.988 916.735 581.696 963.088 564.623C1007.43 549.255 1055.13 544.796 1101.31 551.702C1145.35 558.227 1188.08 570.036 1228.43 586.825C1269.1 602.439 1310.97 621.395 1358.94 635.518C1406.9 649.642 1462 657.921 1512.32 650.748C1546.72 644.849 1580.31 635.145 1612.35 621.853L1633.77 613.786C1711.62 583.954 1794.83 549.753 1883.64 523.063C1978.79 494.876 2080.06 478.861 2161.3 482.693"
      stroke="white" stroke-width="0.5" stroke-miterlimit="10" stroke-linecap="round" />
    <path
      d="M76.3249 693.482C177.657 675.62 281.549 680.208 379.18 706.856C400.624 712.493 422.056 719.136 443.576 725.838C498.633 743.092 554.812 758.82 615.791 761.364C663.631 762.365 711.092 750.214 752.009 726.489C791.866 703.328 825.262 674.864 860.695 646.821C896.128 618.778 934.842 590.473 979.781 573.462C1022.73 557.849 1068.87 551.707 1114.36 555.546C1158.42 559.284 1201.62 568.173 1242.9 581.994C1284.31 595.061 1326.7 611.072 1374.33 623.449C1421.96 635.827 1475.29 643.359 1524.75 637.889C1558.78 633.346 1592.26 625.446 1624.6 614.329L1646.26 607.809C1724.54 582.075 1807.15 550.761 1893.57 525.063C1986.48 497.203 2084.42 478.945 2165.2 476.958"
      stroke="white" stroke-width="0.5" stroke-miterlimit="10" stroke-linecap="round" />
    <path
      d="M73.7322 708.282C178.619 684.207 287.719 684.203 391.157 708.271C413.535 713.27 435.922 719.415 458.397 725.62C516.02 741.497 573.964 756.322 636.276 757.165C682.802 757.016 728.761 745.375 769.269 723.477C808.958 702.421 843.125 675.998 879.029 650.111C914.934 624.223 953.109 597.647 996.48 580.721C1038.19 564.946 1082.83 557.21 1127.51 558.01C1171.61 558.935 1215.26 564.934 1257.41 575.864C1299.52 586.104 1342.54 599.368 1389.76 610.011C1437.48 621.7 1487.16 626.323 1536.91 623.707C1570.74 620.478 1604.24 614.285 1636.95 605.215C1644.12 603.454 1651.27 601.553 1658.58 599.63C1737.24 578.72 1818.61 550.313 1903.31 525.225C1994.22 498.301 2088.22 477.387 2168.79 469.548"
      stroke="white" stroke-width="0.5" stroke-miterlimit="10" stroke-linecap="round" />
    <path
      d="M71.0693 722.016C179.438 691.892 293.693 687.31 402.996 708.703C426.396 713.122 449.651 718.711 473.003 724.43C532.805 738.985 592.989 752.91 656.664 752.264C701.801 751.118 746.272 740.099 786.328 720.136C824.865 699.982 861.85 677.386 897.004 652.521C933.04 628.624 970.949 604.024 1012.91 587.16C1053.45 571.117 1096.67 561.867 1140.43 559.864C1184.64 557.892 1228.81 560.944 1271.9 568.951C1314.78 576.421 1358.36 587.02 1405.16 595.789C1452.26 605.53 1500.67 609.868 1549.27 608.706C1582.72 606.786 1616.01 602.353 1648.81 595.454L1670.52 591.005C1749.4 574.227 1830.33 548.825 1912.45 524.471C1997.53 498.4 2084.19 477.243 2171.91 461.128"
      stroke="white" stroke-width="0.5" stroke-miterlimit="10" stroke-linecap="round" />
    <path
      d="M68.6158 737.731C180.47 701.6 299.922 692.418 415.199 711.092C439.436 714.744 463.898 719.942 487.973 725.197C550.041 738.49 612.397 751.597 677.406 749.249C721.265 747.046 764.387 736.523 804.01 718.356C842.553 700.027 879.787 679.414 915.466 656.655C951.78 633.43 990.017 612.872 1029.8 595.182C1069.27 578.757 1111.09 567.838 1153.82 562.798C1198.03 558.036 1242.56 558.237 1286.42 563.396C1330.12 568.308 1374.34 576.231 1420.4 583.24C1466.99 591.052 1514.35 595.092 1561.94 595.311C1595.16 594.716 1628.35 592.024 1661.29 587.254L1683.42 584.036C1762.51 571.461 1842.16 549.187 1922.63 525.432C2008.84 499.909 2096.16 473.795 2176.06 454.355"
      stroke="white" stroke-width="0.5" stroke-miterlimit="10" stroke-linecap="round" />
    <path
      d="M66.2088 753.796C181.54 711.899 306.109 698.143 427.382 713.913C452.702 717.408 477.826 721.72 503 726.384C567.432 738.544 631.786 750.715 698.117 746.597C740.633 743.386 782.404 733.402 821.526 717.1C860.172 700.593 897.704 681.906 933.898 661.151C970.443 640.327 1008.06 621.158 1046.61 603.717C1085.09 586.898 1125.6 574.476 1167.19 566.738C1211.47 559.15 1256.45 556.441 1301.14 558.672C1345.54 560.757 1390.4 566.074 1436.35 571.233C1482.3 576.392 1528.92 581.813 1574.91 582.304C1607.96 583.069 1641.09 582.086 1674.12 579.36C1681.39 578.805 1688.72 578.099 1696.03 577.322C1775.35 569.02 1854.09 549.748 1932.52 526.649C2016.55 501.873 2100.31 473.55 2179.72 448.01"
      stroke="white" stroke-width="0.5" stroke-miterlimit="10" stroke-linecap="round" />
    <path
      d="M64.023 770.833C182.825 723.231 312.494 704.898 439.786 717.706C533.074 727.249 625.076 753.484 719.05 744.915C884.305 729.858 1019.61 611.516 1180.66 571.883C1352.54 529.597 1532.02 581.362 1708.78 572.094C1873.51 563.716 2030.64 503.124 2183.73 442.977"
      stroke="white" stroke-width="0.5" stroke-miterlimit="10" stroke-linecap="round" />
  </g>
</svg>