<svg width="20" height="20" viewBox="0 0 20 20" fill="none" xmlns="http://www.w3.org/2000/svg">
<path d="M0.57785 19.049C0.6417 19.113 0.717523 19.1637 0.800984 19.1983C0.884445 19.2329 0.973908 19.2507 1.06426 19.2507C1.1546 19.2507 1.24407 19.2329 1.32753 19.1983C1.41099 19.1637 1.48681 19.113 1.55066 19.049L10 10.5997L18.4529 19.049C18.5819 19.178 18.7568 19.2505 18.9393 19.2505C19.1217 19.2505 19.2967 19.178 19.4257 19.049C19.5547 18.92 19.6271 18.7451 19.6271 18.5626C19.6271 18.3802 19.5547 18.2052 19.4257 18.0762L10.9728 9.62686L19.4222 1.17404C19.5512 1.04504 19.6237 0.870076 19.6237 0.687638C19.6237 0.5052 19.5512 0.330235 19.4222 0.201232C19.2932 0.0722289 19.1183 -0.000244141 18.9358 -0.000244141C18.7534 -0.000244141 18.5784 0.0722289 18.4494 0.201232L10 8.65405L1.54722 0.204669C1.4157 0.0920388 1.24653 0.0331846 1.0735 0.0398679C0.900473 0.0465512 0.73634 0.11828 0.6139 0.24072C0.49146 0.36316 0.419731 0.527293 0.413048 0.70032C0.406365 0.873347 0.465219 1.04252 0.57785 1.17404L9.02722 9.62686L0.57785 18.0797C0.449802 18.2085 0.37793 18.3827 0.37793 18.5644C0.37793 18.746 0.449802 18.9202 0.57785 19.049Z" fill="white"/>
</svg>
