<svg width="20" height="20" viewBox="0 0 20 20" fill="none" xmlns="http://www.w3.org/2000/svg">
  <path
    d="M3.65187 0.000488281C1.6289 0.000488281 0 1.62938 0 3.65236V16.3486C0 18.3716 1.6289 20.0005 3.65187 20.0005H10.5331V12.1817H8.46562V9.36673H10.5331V6.96173C10.5331 5.07224 11.7547 3.33736 14.5687 3.33736C15.7081 3.33736 16.5506 3.44674 16.5506 3.44674L16.4843 6.0755C16.4843 6.0755 15.6251 6.06738 14.6875 6.06738C13.6727 6.06738 13.51 6.53493 13.51 7.31113V9.36675H16.565L16.4318 12.1817H13.51V20.0005H16.3481C18.3711 20.0005 20 18.3716 20 16.3486V3.65238C20 1.62941 18.3711 0.000508281 16.3481 0.000508281H3.65185L3.65187 0.000488281Z"
    fill="white" />
</svg>