<svg width="20" height="20" viewBox="0 0 20 20" fill="none" xmlns="http://www.w3.org/2000/svg">
  <path fill-rule="evenodd" clip-rule="evenodd"
    d="M19.905 10.0004C19.905 15.497 15.4491 19.9529 9.9525 19.9529C4.45588 19.9529 -1.52588e-05 15.497 -1.52588e-05 10.0004C-1.52588e-05 4.50374 4.45588 0.0478516 9.9525 0.0478516C15.4491 0.0478516 19.905 4.50374 19.905 10.0004ZM12.3551 6.92158C12.3551 6.539 12.6645 6.2352 13.0414 6.2352C13.424 6.2352 13.7278 6.539 13.7278 6.92158C13.7278 7.30415 13.4184 7.60796 13.0414 7.60796C12.6589 7.60796 12.3551 7.29852 12.3551 6.92158ZM10.0022 7.11419C8.41562 7.11419 7.12725 8.40256 7.12725 9.98911C7.12725 11.5757 8.41562 12.864 10.0022 12.864C11.5887 12.864 12.8771 11.5757 12.8771 9.98911C12.8771 8.40256 11.5831 7.11419 10.0022 7.11419ZM10.0022 11.8288C8.98948 11.8288 8.16245 11.0018 8.16245 9.98911C8.16245 8.97642 8.98948 8.14939 10.0022 8.14939C11.0149 8.14939 11.8419 8.97642 11.8419 9.98911C11.8419 11.0018 11.0149 11.8288 10.0022 11.8288ZM7.62284 15.8224H12.2812C14.2166 15.8224 15.7863 14.2471 15.7863 12.3173V7.65895C15.7863 5.72358 14.2166 4.15391 12.2812 4.15391H7.62284C5.68747 4.15391 4.1178 5.72358 4.1178 7.65895V12.3173C4.1178 14.2471 5.68747 15.8224 7.62284 15.8224ZM5.21488 7.65895C5.21488 6.33119 6.29509 5.25099 7.62284 5.25099H12.2812C13.609 5.25099 14.6892 6.33119 14.6892 7.65895V12.3173C14.6892 13.6451 13.609 14.7253 12.2812 14.7253H7.62284C6.29509 14.7253 5.21488 13.6451 5.21488 12.3173V7.65895Z"
    fill="white" />
</svg>