<svg width="18" height="20" viewBox="0 0 18 20" fill="none" xmlns="http://www.w3.org/2000/svg">
  <path id="Vector"
    d="M17.905 8.18896C17.7453 8.20476 17.5801 8.21003 17.4149 8.21529C15.6251 8.21529 13.9565 7.35166 12.9763 5.91928V13.7289C12.9763 16.9201 10.2724 19.5005 6.94065 19.5005C3.60343 19.5005 0.905014 16.9149 0.905014 13.7289C0.905014 10.5376 3.60893 7.95725 6.94065 7.95725C7.06731 7.95725 7.18846 7.96778 7.31512 7.97305V10.8167C7.18846 10.8009 7.06731 10.7799 6.94065 10.7799C5.239 10.7799 3.85675 12.1017 3.85675 13.7289C3.85675 15.3561 5.239 16.6779 6.94065 16.6779C8.6423 16.6779 10.1457 15.393 10.1457 13.7657L10.1732 0.500488H13.0203C13.2902 2.94395 15.3443 4.85027 17.905 5.02932V8.18896Z"
    fill="white" />
</svg>