<svg width="19" height="14" viewBox="0 0 19 14" fill="none" xmlns="http://www.w3.org/2000/svg">
  <path
    d="M18.6034 2.53122C18.4953 2.13799 18.2832 1.77938 17.9885 1.4913C17.6937 1.20321 17.3266 0.995741 16.9239 0.88966C15.4417 0.500488 9.49995 0.500488 9.49995 0.500488C9.49995 0.500488 3.55821 0.500488 2.07596 0.88759C1.6731 0.993327 1.30583 1.20068 1.01104 1.48882C0.716244 1.77696 0.504301 2.13575 0.396494 2.52915C-4.58573e-05 3.9782 -4.57764e-05 7.00049 -4.57764e-05 7.00049C-4.57764e-05 7.00049 -4.58573e-05 10.0228 0.396494 11.4698C0.614909 12.2688 1.25955 12.8981 2.07596 13.1113C3.55821 13.5005 9.49995 13.5005 9.49995 13.5005C9.49995 13.5005 15.4417 13.5005 16.9239 13.1113C17.7425 12.8981 18.385 12.2688 18.6034 11.4698C19 10.0228 19 7.00049 19 7.00049C19 7.00049 19 3.9782 18.6034 2.53122ZM7.61268 9.77437V4.2266L12.5323 6.97979L7.61268 9.77437Z"
    fill="white" />
</svg>