<svg width="20" height="20" viewBox="0 0 20 20" fill="none" xmlns="http://www.w3.org/2000/svg">
  <path
    d="M5.00455 19.2218C4.24277 18.9344 3.55598 18.5237 2.93629 18.0126C1.42062 16.764 0.571999 15.1555 0.220711 13.2825C0.0523026 12.3848 0.000990825 11.4782 0.00493789 10.5691C0.0102006 9.51628 -0.0226916 8.46219 0.0325673 7.40937C0.120718 5.72714 0.491742 4.12503 1.45877 2.68948C2.23898 1.53112 3.27311 0.655043 4.55195 0.0447124C4.59537 0.0243681 4.63747 -0.009963 4.70721 0.00275222C4.22172 0.471944 3.80464 0.981824 3.45204 1.54002C2.63368 2.83825 2.16661 4.25599 1.94295 5.7513C1.66139 7.63443 1.76007 9.49975 2.28502 11.3371C2.60211 12.4497 3.06128 13.505 3.77175 14.4383C4.1283 14.9063 4.17304 15.3831 4.00331 15.9095C3.85332 16.3723 3.5994 16.7754 3.25863 17.1289C3.20337 17.1861 3.11785 17.2331 3.17969 17.3336C3.18232 17.4124 3.24679 17.4506 3.29547 17.4989C3.8349 18.0342 4.37565 18.5682 4.91508 19.1023C4.94929 19.1392 4.99534 19.1684 5.00455 19.2218Z"
    fill="white" />
  <path
    d="M5.00484 19.2225C4.99431 19.1691 4.94958 19.1399 4.91406 19.1043C4.37463 18.569 3.83388 18.0349 3.29445 17.5009C3.24577 17.4526 3.1813 17.4144 3.17867 17.3356C3.66942 17.431 4.16017 17.3903 4.64697 17.3203C5.25087 17.2326 5.83504 17.0699 6.39026 16.8194C6.46131 16.7876 6.51656 16.7863 6.58761 16.8232C8.20854 17.656 9.95183 18.068 11.7714 18.2091C13.8555 18.3719 15.8961 18.1697 17.8828 17.5251C18.5775 17.3 19.2445 17.0114 19.8774 16.6528C19.905 16.6375 19.9353 16.6286 19.9655 16.6172C19.9721 16.6248 19.98 16.6324 19.9892 16.6388C19.2972 17.6153 18.392 18.3566 17.317 18.9161C16.1132 19.543 14.8159 19.8278 13.466 19.9308C12.074 20.0363 10.6781 19.9944 9.28477 19.9829C7.9454 19.9715 6.6205 19.8265 5.35218 19.3675C5.24956 19.3306 5.14957 19.2861 5.04826 19.2442C5.03378 19.2365 5.018 19.2276 5.00352 19.22L5.00484 19.2225Z"
    fill="white" />
  <path
    d="M7.56956 7.05872C7.11696 7.05872 6.70384 7.05872 6.29071 7.05872C5.80391 7.05872 5.3171 7.05236 4.8303 7.06253C4.67899 7.06634 4.64347 7.02057 4.65136 6.88325C4.6632 6.68997 4.65926 6.49416 4.65268 6.29962C4.65005 6.20171 4.68294 6.16992 4.78556 6.16992C6.10914 6.17246 7.43404 6.17246 8.75762 6.16992C8.86156 6.16992 8.88919 6.20552 8.89182 6.30216C8.89709 6.5908 8.79841 6.83747 8.61027 7.06253C7.70902 8.14714 6.81172 9.23683 5.91442 10.3253C5.89206 10.3532 5.85522 10.3761 5.86443 10.4397C5.99468 10.4397 6.12756 10.4397 6.26045 10.4397C7.07881 10.4397 7.89585 10.4422 8.71421 10.4371C8.84709 10.4359 8.90761 10.4524 8.9063 10.6063C8.90367 11.2191 8.85893 11.2687 8.22082 11.2687C7.05907 11.2687 5.89732 11.2649 4.73557 11.2725C4.56847 11.2738 4.5369 11.2242 4.53427 11.0729C4.53032 10.8135 4.61452 10.6012 4.78293 10.4015C5.68286 9.33093 6.57753 8.25649 7.47351 7.18332C7.49588 7.15281 7.51825 7.12229 7.56956 7.05872Z"
    fill="white" />
  <path
    d="M12.3851 7.64351C12.3403 7.42226 12.4719 7.39938 12.6521 7.41209C12.8074 7.42354 12.964 7.41845 13.1192 7.41336C13.2205 7.40955 13.2534 7.44642 13.2534 7.54433C13.2508 8.74083 13.2508 9.93733 13.2534 11.1351C13.2534 11.2432 13.2166 11.2788 13.1074 11.2712C12.9916 11.2635 12.8745 11.2724 12.7574 11.2686C12.6179 11.2648 12.485 11.2139 12.4443 11.0855C12.3851 10.9011 12.3114 10.9774 12.2035 11.0334C11.4364 11.4314 10.6812 11.4047 9.96814 10.924C9.06426 10.315 8.83665 9.11593 9.43134 8.21951C10.0234 7.3269 11.2496 7.03699 12.2048 7.56213C12.2574 7.59265 12.3022 7.64224 12.3851 7.64351ZM12.3785 9.31047C12.3824 8.66581 11.8298 8.12542 11.1707 8.13177C10.5115 8.13813 9.96814 8.66073 9.96419 9.29395C9.96024 9.93098 10.4957 10.4599 11.1536 10.4676C11.8272 10.4752 12.3745 9.95768 12.3785 9.31047Z"
    fill="white" />
  <path
    d="M15.4814 9.27363C15.4814 8.14706 16.3958 7.27734 17.5799 7.27734C18.7154 7.27862 19.6416 8.17377 19.6495 9.27745C19.6561 10.3811 18.6983 11.3106 17.5576 11.3055C16.4011 11.3004 15.4814 10.4002 15.4814 9.27363ZM18.7746 9.29143C18.7746 8.64677 18.2286 8.11782 17.5628 8.11655C16.8839 8.11655 16.3419 8.64296 16.3445 9.30161C16.3471 9.94754 16.8944 10.4701 17.5628 10.4663C18.2338 10.4625 18.7759 9.93737 18.7746 9.29143Z"
    fill="white" />
  <path
    d="M14.8872 8.71389C14.8872 9.50351 14.8833 10.2944 14.8911 11.084C14.8925 11.234 14.8464 11.2836 14.6938 11.2696C14.5649 11.2582 14.4346 11.2697 14.3043 11.2671C14.0833 11.262 13.9754 11.1565 13.9636 10.9416C13.961 10.8984 13.9623 10.8539 13.9623 10.8094C13.9623 9.33567 13.9662 7.86197 13.957 6.38828C13.9557 6.20009 14.0123 6.1505 14.1951 6.16703C14.3557 6.18229 14.5201 6.17975 14.6806 6.16703C14.8385 6.15432 14.8911 6.20009 14.8885 6.36158C14.8819 7.1461 14.8872 7.93063 14.8872 8.71389Z"
    fill="white" />
  <path
    d="M19.9658 16.6174C19.9776 16.6111 19.9881 16.606 20 16.5996C19.996 16.6123 19.9934 16.6263 19.9895 16.639C19.9802 16.6339 19.9724 16.6263 19.9658 16.6174Z"
    fill="white" />
  <path
    d="M5.00288 19.2207C5.01736 19.2283 5.03314 19.2372 5.04762 19.2449C5.03314 19.2372 5.01867 19.2296 5.00288 19.2207Z"
    fill="white" />
</svg>